# xmcd CD database file
#
# Track frame offsets:
#	150
#	12637
#	25450
#	40190
#	54107
#	67700
#	81995
#	98060
#	114605
#	129795
#
# Disc length: 1890 seconds
#
# Revision: 2
# Processed by: cddbd v1.5.2PL0 Copyright (c) Steve Scherf et al.
# Submitted via: CDex 1.51
#
DISCID=7507600a
DTITLE=Michael Jackson - Ben
DYEAR=1972
DGENRE=Soul
TTITLE0=Ben
TTITLE1=Greatest Show On Earth
TTITLE2=People Make The World Go 'Round
TTITLE3=We've Got A Good Thing Going
TTITLE4=Everybody's Somebody's Fool
TTITLE5=My Girl
TTITLE6=What Goes Around Comes Around
TTITLE7=In Our Small Way
TTITLE8=Shoo-Be-Doo-Be-Doo-Da-Day
TTITLE9=You Can Cry On My Shoulder
EXTD=YEAR: 1972
EXTT0=
EXTT1=
EXTT2=
EXTT3=
EXTT4=
EXTT5=
EXTT6=
EXTT7=
EXTT8=
EXTT9=
PLAYORDER=
